<svg xmlns="http://www.w3.org/2000/svg" width="82" height="99" fill="none">
    <g clip-path="url(#a)">
        <path fill="#2E0039"
            d="M40.4 47.3A22.9 22.9 0 0 0 57 40.4a22.9 22.9 0 0 0 7-16.7 23 23 0 0 0-6.9-16.8A23 23 0 0 0 40.4 0a22.9 22.9 0 0 0-16.8 7 22.9 22.9 0 0 0-6.9 16.7 22.9 22.9 0 0 0 7 16.7 23 23 0 0 0 16.7 7v-.1Zm41.4 28.3a58.5 58.5 0 0 0-2.3-12.5c-.7-2-1.5-4-2.6-5.8a22 22 0 0 0-3.9-5 17 17 0 0 0-5.5-3.5c-2.3-.9-4.7-1.3-7.1-1.3-1 0-2 .4-3.9 1.7l-4 2.5a23 23 0 0 1-5.2 2.3c-4 1.4-8.5 1.4-12.6 0a23 23 0 0 1-5.2-2.3l-4-2.6c-1.9-1.2-2.9-1.6-3.9-1.6-2.4 0-4.8.4-7 1.3-2 .8-4 2-5.6 3.5a22 22 0 0 0-3.9 5A49 49 0 0 0 .2 75.6L0 81.4c0 5.1 1.6 9.2 4.8 12.3 3.2 3.1 7.4 4.6 12.5 4.6h47.4c5 0 9.3-1.5 12.4-4.6 3.1-3.1 4.9-7.2 4.9-12.3 0-2 0-4-.2-5.8Z" />
    </g>
    <defs>
        <clipPath id="a">
            <path fill="#fff" d="M0 0h82v98.3H0z" />
        </clipPath>
    </defs>
</svg>