<svg xmlns="http://www.w3.org/2000/svg" width="115" height="28" fill="none">
    <path fill="#2e0039"
        d="M2.549 7.629.28 7.348v-5.15h20.162v5.15l-2.267.28c-.317-.222-.615-.726-.897-1.51h-4.324v16.698c.938.375 1.6.774 1.986 1.196L14.572 27h-8.42l-.369-2.988c.317-.41.979-.809 1.987-1.196V6.117H3.445c-.28.785-.58 1.29-.896 1.512Zm35.314 9.931c0 2.344-.398 4.231-1.195 5.66-.797 1.419-1.88 2.45-3.252 3.095-1.36.632-2.894.949-4.605.949-2.672 0-4.729-.71-6.17-2.127-1.43-1.43-2.145-3.826-2.145-7.19 0-3.023.791-5.314 2.373-6.873 1.594-1.57 3.768-2.355 6.522-2.355 2.812 0 4.927.691 6.345 2.074 1.418 1.383 2.127 3.639 2.127 6.768Zm-12.129.3c0 3.831 1.155 5.747 3.463 5.747 1.172 0 2.04-.433 2.602-1.3.562-.88.844-2.315.844-4.307 0-3.738-1.178-5.607-3.534-5.607-1.148 0-1.998.416-2.549 1.248-.55.82-.826 2.226-.826 4.218Zm31.22-.3c0 2.344-.4 4.231-1.196 5.66-.797 1.419-1.881 2.45-3.252 3.095-1.36.632-2.895.949-4.606.949-2.672 0-4.728-.71-6.17-2.127-1.43-1.43-2.144-3.826-2.144-7.19 0-3.023.791-5.314 2.373-6.873 1.594-1.57 3.768-2.355 6.521-2.355 2.813 0 4.928.691 6.346 2.074 1.418 1.383 2.127 3.639 2.127 6.768Zm-12.13.3c0 3.831 1.154 5.747 3.463 5.747 1.172 0 2.04-.433 2.602-1.3.562-.88.843-2.315.843-4.307 0-3.738-1.177-5.607-3.533-5.607-1.148 0-1.998.416-2.549 1.248-.55.82-.826 2.226-.826 4.218Zm13.5-13.641.352-2.778c1.36-.316 2.613-.474 3.761-.474 1.149 0 2.116.035 2.9.105V23.01c.938.351 1.6.756 1.987 1.213L66.973 27h-8.297l-.352-2.777c.328-.457.99-.862 1.986-1.213V5.432c-.855-.282-1.517-.686-1.986-1.213Zm10.705.931.352-2.988h8.437l.352 2.988c-.387.457-1.043.862-1.969 1.213v16.453c.926.375 1.582.774 1.969 1.196L77.818 27h-8.437l-.352-2.988c.317-.41.979-.809 1.987-1.196V6.363c-.997-.351-1.659-.756-1.987-1.213Zm21.71 18.862L90.368 27h-5.976l-7.98-12.955 6.01-7.998c-.679-.328-1.148-.65-1.405-.967l.351-2.918h8.21l.368 2.918c-.34.387-.966.768-1.88 1.143l-6.223 7.681 5.695 8.56c1.535.329 2.602.845 3.2 1.548Zm.72-12.235L91.811 9c1.359-.316 2.613-.475 3.761-.475.575 0 1.102.012 1.582.036.48.011.92.04 1.319.087V23.01c.937.351 1.599.756 1.986 1.213L100.107 27h-8.296l-.352-2.777c.328-.457.99-.862 1.986-1.213V12.99c-.855-.281-1.517-.685-1.986-1.213Zm14.361-7.312h2.619V9h5.151v3.023h-5.151v9.106c0 .785.112 1.342.334 1.67.165.258.469.422.915.492.457.059.978.041 1.564-.053a8.143 8.143 0 0 0 1.687-.457l1.09 2.813c-1.851.937-3.744 1.406-5.677 1.406-1.934 0-3.241-.41-3.92-1.23-.68-.832-1.02-2.04-1.02-3.622V12.023h-1.617l-.404-2.197c.386-.457 1.177-.914 2.373-1.37.304-1.981.99-3.311 2.056-3.991Z" />
</svg>