<svg xmlns="http://www.w3.org/2000/svg" width="28" height="28" fill="none"><path fill="#fff" d="m10.5 13.662.338-.35.338.35a1.166 1.166 0 0 0 1.657 0 1.165 1.165 0 0 0 0-1.657l-.35-.338.35-.338a1.188 1.188 0 1 0-1.703-1.657l-.339.35-.291-.35a1.188 1.188 0 0 0-1.704 1.656l.35.339-.35.338a1.167 1.167 0 0 0 0 1.657 1.165 1.165 0 0 0 1.657 0h.047Zm-.7 4.223a1.167 1.167 0 0 0 .202 1.92 1.168 1.168 0 0 0 1.291-.135 4.387 4.387 0 0 1 5.507 0 1.168 1.168 0 0 0 1.645-.152 1.167 1.167 0 0 0-.152-1.633 6.778 6.778 0 0 0-8.54 0H9.8ZM14 2.333a11.667 11.667 0 1 0 0 23.334 11.667 11.667 0 0 0 0-23.334Zm0 21a9.333 9.333 0 1 1 0-18.665 9.333 9.333 0 0 1 0 18.666Zm5.833-13.661a1.167 1.167 0 0 0-1.657 0l-.338.35-.338-.35a1.172 1.172 0 0 0-1.657 1.656l.35.339-.35.338a1.169 1.169 0 0 0 .38 1.912 1.167 1.167 0 0 0 1.277-.255l.338-.35.338.35a1.166 1.166 0 0 0 1.657 0 1.165 1.165 0 0 0 0-1.657l-.35-.338.35-.338a1.166 1.166 0 0 0 0-1.657Z"/></svg>