<svg xmlns="http://www.w3.org/2000/svg" id="Layer_41" data-name="Layer 41" viewBox="0 0 50 50">
    <defs>
        <style>.cls-1{fill:#1e0125}</style>
    </defs>
    <path
        d="M44 10h-9V8.6A6.6 6.6 0 0 0 28.4 2h-6.8A6.6 6.6 0 0 0 15 8.6V10H6a2 2 0 0 0 0 4h3v27.4a6.6 6.6 0 0 0 6.6 6.6h18.8a6.6 6.6 0 0 0 6.6-6.6V14h3a2 2 0 0 0 0-4ZM19 8.6A2.6 2.6 0 0 1 21.6 6h6.8A2.6 2.6 0 0 1 31 8.6V10H19V8.6Zm18 32.8a2.6 2.6 0 0 1-2.6 2.6H15.6a2.6 2.6 0 0 1-2.6-2.6V14h24v27.4Z"
        class="cls-1" />
    <path
        d="M20 18.5a2 2 0 0 0-2 2v18a2 2 0 0 0 4 0v-18a2 2 0 0 0-2-2ZM30 18.5a2 2 0 0 0-2 2v18a2 2 0 1 0 4 0v-18a2 2 0 0 0-2-2Z"
        class="cls-1" />
</svg>